<svg width="120" height="120" viewBox="0 0 120 120" fill="none" xmlns="http://www.w3.org/2000/svg">
<path fill-rule="evenodd" clip-rule="evenodd" d="M0 0H120V120H0V0Z" fill="#434242" fill-opacity="0.94902"/>
<path d="M6.71301 63.6264C5.97944 63.6264 5.38429 63.0312 5.38429 62.2976C5.38429 61.5641 5.97944 60.9689 6.71301 60.9689C7.44657 60.9689 8.04173 61.5641 8.04173 62.2976C8.04173 63.0312 7.44657 63.6264 6.71301 63.6264ZM6.71301 58.7544C4.76145 58.7544 3.18359 60.3461 3.18359 62.2976C3.18359 64.2492 4.76145 65.8271 6.71301 65.8271C8.66456 65.8271 10.2563 64.2492 10.2563 62.2976C10.2563 60.3461 8.66456 58.7544 6.71301 58.7544Z" fill="#FFED00"/>
<path d="M93.9375 64.5256H97.0932V60.8716H93.9375V64.5256Z" fill="#26AAD8"/>
<path d="M109.426 63.8614H115.723V61.5361H109.426V63.8614Z" fill="#26AAD8"/>
<path d="M117.55 62.3389L116.277 61.5361V63.8614L117.55 63.0448C117.813 62.8787 117.813 62.505 117.55 62.3389Z" fill="#26AAD8"/>
<path d="M108.374 59.9312H98.1452C97.8684 59.9312 97.647 60.1526 97.647 60.4294V60.7616H99.211V61.3152H97.647V62.4225H99.211V62.9761H97.647V64.0696H99.211V64.637H97.647V64.9554C97.647 65.2322 97.8684 65.4536 98.1452 65.4536H108.374C108.65 65.4536 108.872 65.2322 108.872 64.9554V60.4294C108.872 60.1526 108.65 59.9312 108.374 59.9312Z" fill="#26AAD8"/>
<path d="M104.028 35.5018L104.471 35.1973" stroke="#2B2A29" stroke-width="0.666709"/>
<path d="M93.3981 63.5983H72.3186C71.8203 63.5983 71.4189 63.2246 71.3497 62.754L70.2701 57.8821L67.1421 69.2869C67.0037 69.8129 66.4639 70.1174 65.9518 69.979C65.5365 69.8682 65.2597 69.5084 65.232 69.107L62.7684 35.7091H55.1836L52.2632 81.6329C52.2217 82.1589 51.7649 82.5741 51.2251 82.5326C50.7407 82.5049 50.3532 82.1174 50.3116 81.6329L47.2528 38.2419H40.0417L35.3358 67.4599C35.2528 67.9859 34.7545 68.3596 34.2147 68.2765C33.8272 68.2073 33.5365 67.9167 33.4397 67.5568H33.4258L30.8099 57.7575L29.5642 62.4219C29.4397 62.8648 29.0521 63.1554 28.6092 63.1554H11.1836L11.1974 61.19H27.8618L29.8549 53.7575C29.9379 53.4253 30.2009 53.1485 30.5608 53.0516C31.0729 52.9132 31.6127 53.2177 31.7511 53.7437L34.1317 62.6572L38.2286 37.19C38.2701 36.6779 38.6992 36.2904 39.2113 36.2904H48.1525C48.6646 36.2904 49.0936 36.6779 49.1352 37.19L51.239 67.0309L53.3012 34.7264C53.3012 34.1866 53.7303 33.7437 54.2701 33.7437H63.668V33.7575C64.1801 33.7437 64.6092 34.145 64.6369 34.6571L66.7684 63.3215L69.412 53.6052C69.495 53.2592 69.7718 52.9686 70.1455 52.8994C70.6715 52.7748 71.1974 53.107 71.3082 53.6329L73.1075 61.6468H93.3981V63.5983Z" fill="url(#paint0_linear_2079_2)"/>
<path d="M6.12305 48.1421H7.56055L8.2832 49.0718L8.99414 49.8999L10.334 51.5796H8.75586L7.83398 50.4468L7.36133 49.7749L6.12305 48.1421ZM10.4551 46.9233C10.4551 47.7957 10.2897 48.5379 9.95898 49.1499C9.63086 49.7619 9.18294 50.2293 8.61523 50.5522C8.05013 50.8726 7.41471 51.0327 6.70898 51.0327C5.99805 51.0327 5.36003 50.8713 4.79492 50.5483C4.22982 50.2254 3.7832 49.758 3.45508 49.146C3.12695 48.534 2.96289 47.7931 2.96289 46.9233C2.96289 46.0509 3.12695 45.3088 3.45508 44.6968C3.7832 44.0848 4.22982 43.6187 4.79492 43.2983C5.36003 42.9754 5.99805 42.814 6.70898 42.814C7.41471 42.814 8.05013 42.9754 8.61523 43.2983C9.18294 43.6187 9.63086 44.0848 9.95898 44.6968C10.2897 45.3088 10.4551 46.0509 10.4551 46.9233ZM8.74023 46.9233C8.74023 46.3582 8.6556 45.8817 8.48633 45.4937C8.31966 45.1056 8.08398 44.8114 7.7793 44.6108C7.47461 44.4103 7.11784 44.3101 6.70898 44.3101C6.30013 44.3101 5.94336 44.4103 5.63867 44.6108C5.33398 44.8114 5.09701 45.1056 4.92773 45.4937C4.76107 45.8817 4.67773 46.3582 4.67773 46.9233C4.67773 47.4884 4.76107 47.965 4.92773 48.353C5.09701 48.741 5.33398 49.0353 5.63867 49.2358C5.94336 49.4364 6.30013 49.5366 6.70898 49.5366C7.11784 49.5366 7.47461 49.4364 7.7793 49.2358C8.08398 49.0353 8.31966 48.741 8.48633 48.353C8.6556 47.965 8.74023 47.4884 8.74023 46.9233ZM11.6768 50.9233V44.9233H13.3408V50.9233H11.6768ZM14.6738 50.9233V44.9233H16.2871V45.9702H16.3496C16.459 45.5978 16.6426 45.3166 16.9004 45.1265C17.1582 44.9338 17.4551 44.8374 17.791 44.8374C17.8743 44.8374 17.9642 44.8426 18.0605 44.853C18.1569 44.8634 18.2415 44.8778 18.3145 44.896V46.3726C18.2363 46.3491 18.1283 46.3283 17.9902 46.3101C17.8522 46.2918 17.7259 46.2827 17.6113 46.2827C17.3665 46.2827 17.1478 46.3361 16.9551 46.4429C16.765 46.547 16.6139 46.6929 16.502 46.8804C16.3926 47.0679 16.3379 47.284 16.3379 47.5288V50.9233H14.6738ZM19.1748 50.9233V44.9233H20.8389V50.9233H19.1748ZM22.1719 50.9233V44.9233H23.7578V45.9819H23.8281C23.9531 45.6304 24.1615 45.353 24.4531 45.1499C24.7448 44.9468 25.0938 44.8452 25.5 44.8452C25.9115 44.8452 26.2617 44.9481 26.5508 45.1538C26.8398 45.3569 27.0326 45.633 27.1289 45.9819H27.1914C27.3138 45.6382 27.5352 45.3634 27.8555 45.1577C28.1784 44.9494 28.5599 44.8452 29 44.8452C29.5599 44.8452 30.0143 45.0236 30.3633 45.3804C30.7148 45.7345 30.8906 46.2371 30.8906 46.8882V50.9233H29.2305V47.2163C29.2305 46.883 29.1419 46.633 28.9648 46.4663C28.7878 46.2996 28.5664 46.2163 28.3008 46.2163C27.9987 46.2163 27.763 46.3127 27.5938 46.5054C27.4245 46.6955 27.3398 46.9468 27.3398 47.2593V50.9233H25.7266V47.1812C25.7266 46.8869 25.6419 46.6525 25.4727 46.478C25.306 46.3035 25.0859 46.2163 24.8125 46.2163C24.6276 46.2163 24.4609 46.2632 24.3125 46.3569C24.1667 46.4481 24.0508 46.577 23.9648 46.7437C23.8789 46.9077 23.8359 47.1004 23.8359 47.3218V50.9233H22.1719Z" fill="#00A0E3"/>
<path d="M81.0713 47.9756C81.0713 48.848 80.9059 49.5902 80.5752 50.2021C80.2471 50.8141 79.7992 51.2816 79.2314 51.6045C78.6663 51.9248 78.0309 52.085 77.3252 52.085C76.6143 52.085 75.9762 51.9235 75.4111 51.6006C74.846 51.2777 74.3994 50.8102 74.0713 50.1982C73.7432 49.5863 73.5791 48.8454 73.5791 47.9756C73.5791 47.1032 73.7432 46.361 74.0713 45.749C74.3994 45.137 74.846 44.6709 75.4111 44.3506C75.9762 44.0277 76.6143 43.8662 77.3252 43.8662C78.0309 43.8662 78.6663 44.0277 79.2314 44.3506C79.7992 44.6709 80.2471 45.137 80.5752 45.749C80.9059 46.361 81.0713 47.1032 81.0713 47.9756ZM79.3564 47.9756C79.3564 47.4105 79.2718 46.9339 79.1025 46.5459C78.9359 46.1579 78.7002 45.8636 78.3955 45.6631C78.0908 45.4626 77.734 45.3623 77.3252 45.3623C76.9163 45.3623 76.5596 45.4626 76.2549 45.6631C75.9502 45.8636 75.7132 46.1579 75.5439 46.5459C75.3773 46.9339 75.2939 47.4105 75.2939 47.9756C75.2939 48.5407 75.3773 49.0173 75.5439 49.4053C75.7132 49.7933 75.9502 50.0876 76.2549 50.2881C76.5596 50.4886 76.9163 50.5889 77.3252 50.5889C77.734 50.5889 78.0908 50.4886 78.3955 50.2881C78.7002 50.0876 78.9359 49.7933 79.1025 49.4053C79.2718 49.0173 79.3564 48.5407 79.3564 47.9756ZM83.957 48.5068V51.9756H82.293V45.9756H83.8789V47.0342H83.9492C84.082 46.6852 84.3047 46.4092 84.6172 46.2061C84.9297 46.0003 85.3086 45.8975 85.7539 45.8975C86.1706 45.8975 86.5339 45.9886 86.8438 46.1709C87.1536 46.3532 87.3945 46.6136 87.5664 46.9521C87.7383 47.2881 87.8242 47.6891 87.8242 48.1553V51.9756H86.1602V48.4521C86.1628 48.085 86.069 47.7985 85.8789 47.5928C85.6888 47.3844 85.4271 47.2803 85.0938 47.2803C84.8698 47.2803 84.6719 47.3285 84.5 47.4248C84.3307 47.5212 84.1979 47.6618 84.1016 47.8467C84.0078 48.029 83.9596 48.249 83.957 48.5068ZM90.7998 43.9756V51.9756H89.1357V43.9756H90.7998ZM92.1328 51.9756V45.9756H93.7969V51.9756H92.1328ZM92.9688 45.2021C92.7214 45.2021 92.5091 45.1201 92.332 44.9561C92.1576 44.7894 92.0703 44.5902 92.0703 44.3584C92.0703 44.1292 92.1576 43.9326 92.332 43.7686C92.5091 43.6019 92.7214 43.5186 92.9688 43.5186C93.2161 43.5186 93.4271 43.6019 93.6016 43.7686C93.7786 43.9326 93.8672 44.1292 93.8672 44.3584C93.8672 44.5902 93.7786 44.7894 93.6016 44.9561C93.4271 45.1201 93.2161 45.2021 92.9688 45.2021ZM96.7939 48.5068V51.9756H95.1299V45.9756H96.7158V47.0342H96.7861C96.9189 46.6852 97.1416 46.4092 97.4541 46.2061C97.7666 46.0003 98.1455 45.8975 98.5908 45.8975C99.0075 45.8975 99.3708 45.9886 99.6807 46.1709C99.9906 46.3532 100.231 46.6136 100.403 46.9521C100.575 47.2881 100.661 47.6891 100.661 48.1553V51.9756H98.9971V48.4521C98.9997 48.085 98.9059 47.7985 98.7158 47.5928C98.5257 47.3844 98.264 47.2803 97.9307 47.2803C97.7067 47.2803 97.5088 47.3285 97.3369 47.4248C97.1676 47.5212 97.0348 47.6618 96.9385 47.8467C96.8447 48.029 96.7965 48.249 96.7939 48.5068ZM104.707 52.0928C104.09 52.0928 103.559 51.9678 103.113 51.7178C102.671 51.4652 102.329 51.1084 102.09 50.6475C101.85 50.1839 101.73 49.6357 101.73 49.0029C101.73 48.3857 101.85 47.8441 102.09 47.3779C102.329 46.9118 102.667 46.5485 103.102 46.2881C103.539 46.0277 104.052 45.8975 104.641 45.8975C105.036 45.8975 105.405 45.9613 105.746 46.0889C106.09 46.2139 106.389 46.4027 106.645 46.6553C106.902 46.9079 107.103 47.2256 107.246 47.6084C107.389 47.9886 107.461 48.4339 107.461 48.9443V49.4014H102.395V48.3701H105.895C105.895 48.1305 105.842 47.9183 105.738 47.7334C105.634 47.5485 105.49 47.404 105.305 47.2998C105.122 47.193 104.91 47.1396 104.668 47.1396C104.415 47.1396 104.191 47.1982 103.996 47.3154C103.803 47.43 103.652 47.585 103.543 47.7803C103.434 47.973 103.378 48.1878 103.375 48.4248V49.4053C103.375 49.7021 103.43 49.9587 103.539 50.1748C103.651 50.391 103.809 50.5576 104.012 50.6748C104.215 50.792 104.456 50.8506 104.734 50.8506C104.919 50.8506 105.089 50.8245 105.242 50.7725C105.396 50.7204 105.527 50.6423 105.637 50.5381C105.746 50.4339 105.829 50.3063 105.887 50.1553L107.426 50.2568C107.348 50.6266 107.188 50.9495 106.945 51.2256C106.706 51.499 106.396 51.7126 106.016 51.8662C105.638 52.0173 105.202 52.0928 104.707 52.0928Z" fill="#00A0E3"/>
<defs>
<linearGradient id="paint0_linear_2079_2" x1="9.07107" y1="94.3513" x2="84.6369" y2="81.107" gradientUnits="userSpaceOnUse">
<stop stop-color="#FFED00"/>
<stop offset="1" stop-color="#00A0E3"/>
</linearGradient>
</defs>
</svg>
