<svg width="96" height="96" viewBox="0 0 96 96" fill="none" xmlns="http://www.w3.org/2000/svg">
<path fill-rule="evenodd" clip-rule="evenodd" d="M0 0H96V96H0V0Z" fill="white"/>
<path d="M80.1279 63.8673C77.4828 60.7574 75.7218 57.2388 74.9893 53.2248C74.6455 51.3405 74.4879 49.4373 74.4826 47.5247C74.465 41.0855 74.4638 34.6462 74.4565 28.207C74.4558 27.5889 74.4248 27.5566 73.8092 27.5566C68.0496 27.5565 62.29 27.558 56.5304 27.5561C51.5871 27.5544 46.6437 27.5455 41.7004 27.5458C35.1972 27.5463 28.694 27.5527 22.1907 27.5566C21.5776 27.557 21.5467 27.5886 21.5467 28.2101C21.5466 32.5378 21.5498 36.8655 21.5453 41.1932C21.5431 43.3927 21.5414 45.5924 21.5133 47.7916C21.4823 50.2191 21.2414 52.624 20.6178 54.9791C19.7684 58.1874 18.2182 61.028 16.1153 63.5821C14.7735 65.2119 13.2577 66.6587 11.5917 67.9511C11.4596 68.0536 11.3208 68.1501 11.1752 68.2317C10.5074 68.6057 9.95415 68.5545 9.40715 68.0178C8.90588 67.5259 8.43793 66.9998 7.96124 66.4833C7.03993 65.4851 6.1162 64.4889 5.20809 63.4787C4.94788 63.1893 4.7345 62.8366 4.91419 62.432C5.0134 62.2086 5.1857 61.9896 5.38043 61.8415C6.25176 61.1785 7.11936 60.5154 7.89627 59.738C10.1873 57.4454 11.6617 54.709 12.3878 51.5581C12.8011 49.7646 12.9395 47.9428 12.9405 46.1094C12.9455 37.422 12.9425 28.7346 12.9443 20.0472C12.9444 19.8481 12.9455 19.6444 12.9846 19.4507C13.1305 18.7285 13.5647 18.392 14.3885 18.3428C14.516 18.3352 14.6443 18.3361 14.7722 18.3361C36.9227 18.3358 59.0731 18.3357 81.2236 18.3376C81.4467 18.3376 81.6712 18.3518 81.8925 18.3799C82.5535 18.4636 82.9683 18.8939 83.0374 19.5612C83.0546 19.7278 83.0594 19.8963 83.0594 20.0639C83.0604 28.7433 83.0572 37.4227 83.0626 46.1021C83.0639 48.1857 83.2452 50.2496 83.7952 52.2713C84.4687 54.7466 85.6274 56.9588 87.3167 58.8915C88.2202 59.9252 89.2332 60.8365 90.3556 61.627C90.5053 61.7324 90.651 61.8471 90.7823 61.9743C91.2213 62.3991 91.2835 62.8065 90.9209 63.2956C90.6082 63.7174 90.2428 64.1014 89.8872 64.4898C88.8834 65.586 87.8735 66.6767 86.8634 67.7672C86.7498 67.8899 86.6261 68.0052 86.4963 68.1107C85.9372 68.5649 85.3737 68.6223 84.7582 68.1778C84.0415 67.6602 83.3389 67.1109 82.6981 66.5036C81.8121 65.664 80.9896 64.7574 80.1279 63.8673Z" fill="#484848"/>
<path d="M43.3949 64.358C43.5833 62.8911 43.5912 61.4389 43.5896 59.9844C43.5821 53.2408 43.5863 46.4972 43.5863 39.7536C43.5863 38.1066 43.5863 36.4596 43.5863 34.8126C43.5863 33.2936 43.5863 31.7746 43.5863 30.2556C43.5863 30.1767 43.5863 30.0979 43.5863 30.0059C46.529 30.0059 49.4603 30.0059 52.4152 30.0059C52.4152 30.5604 52.4157 31.1172 52.4151 31.674C52.4124 34.1849 52.4061 36.6957 52.4069 39.2066C52.4089 44.9335 52.4146 50.6603 52.4181 56.3872C52.4192 58.179 52.3802 59.9719 52.4265 61.7626C52.513 65.1094 53.1241 68.35 54.5152 71.4207C55.3146 73.1853 56.3449 74.8013 57.559 76.3063C57.8238 76.6346 58.0158 76.9993 57.9405 77.4502C57.9155 77.5995 57.8593 77.6604 57.6941 77.6603C51.2305 77.6559 44.7669 77.6558 38.3033 77.6605C38.1313 77.6607 38.0872 77.5883 38.0635 77.4431C37.9897 76.9919 38.1866 76.6297 38.4498 76.3005C39.211 75.3483 39.9128 74.3567 40.5246 73.3007C41.6385 71.378 42.4337 69.3302 42.9088 67.1632C43.1104 66.2441 43.2347 65.3081 43.3949 64.358Z" fill="#484848"/>
</svg>
